<svg xmlns="http://www.w3.org/2000/svg" version="1.1" xmlns:xlink="http://www.w3.org/1999/xlink" width="512" height="512" x="0" y="0" viewBox="0 0 1227 1227" style="enable-background:new 0 0 512 512" xml:space="preserve" class=""><rect width="1227" height="1227" rx="245.4" ry="245.4" fill="#121212" shape="rounded"></rect><g transform="matrix(0.7,0,0,0.7,184.05,184.05)"><path d="M654.53 592.55 930.65 987.5H817.33L592.01 665.22v-.02l-33.08-47.31-263.21-376.5h113.32l212.41 303.85z" fill="#ffffff" opacity="1" data-original="#000000" class=""></path><path d="M1094.42 0H132.58C59.36 0 0 59.36 0 132.58v961.84C0 1167.64 59.36 1227 132.58 1227h961.84c73.22 0 132.58-59.36 132.58-132.58V132.58C1227 59.36 1167.64 0 1094.42 0zm-311.8 1040.52L554.61 708.68l-285.47 331.84h-73.78l326.49-379.5-326.49-475.17h249.02l215.91 314.23 270.32-314.23h73.78l-311.33 361.9h-.02l338.6 492.77z" fill="#ffffff" opacity="1" data-original="#000000" class=""></path></g></svg>